<?xml version="1.0" standalone="no"?>
<!DOCTYPE svg PUBLIC "-//W3C//DTD SVG 20010904//EN"
 "http://www.w3.org/TR/2001/REC-SVG-20010904/DTD/svg10.dtd">
<svg version="1.0" xmlns="http://www.w3.org/2000/svg"
 width="512.000000pt" height="512.000000pt" viewBox="0 0 512.000000 512.000000"
 preserveAspectRatio="xMidYMid meet">
<metadata>
Created by potrace 1.14, written by Peter Selinger 2001-2017
</metadata>
<g transform="translate(0.000000,512.000000) scale(0.100000,-0.100000)"
fill="#000000" stroke="none">
<path d="M2352 5079 c-129 -12 -238 -27 -261 -35 -8 -2 -30 -7 -50 -10 -92
-14 -411 -113 -436 -135 -5 -5 -15 -9 -22 -9 -18 0 -239 -111 -318 -158 -347
-211 -656 -517 -856 -847 -76 -126 -74 -122 -115 -205 -139 -285 -218 -562
-251 -887 -9 -88 -8 -401 1 -478 15 -134 23 -181 42 -275 9 -41 17 -83 19 -93
5 -25 18 -64 60 -187 19 -58 37 -112 39 -121 3 -10 23 -56 45 -104 23 -47 41
-88 41 -89 0 -11 113 -206 163 -281 130 -195 242 -325 419 -485 241 -217 523
-386 827 -497 112 -40 167 -56 311 -89 99 -22 123 -27 210 -39 191 -25 537
-26 676 -1 11 2 41 7 67 10 175 26 426 100 606 178 412 181 781 479 1042 842
266 371 430 811 466 1251 13 163 7 447 -13 572 -11 74 -16 101 -35 193 -71
352 -256 740 -496 1040 -69 86 -250 274 -333 345 -189 161 -478 336 -695 419
-38 15 -79 31 -90 36 -40 18 -270 83 -340 95 -120 22 -209 36 -265 41 -102 9
-377 11 -458 3z"/>
</g>
</svg>
