{
  "accessors": [
    {
      "bufferView": 2,
      "componentType": 5126,
      "count": 10,
      "max": [
        -35.1522216796875,
        11.705594062805176,
        40.794097900390625
      ],
      "min": [
        -35.498695373535156,
        10.130677223205566,
        33.01505661010742
      ],
      "type": "VEC3"
    },
    {
      "bufferView": 1,
      "componentType": 5126,
      "count": 10,
      "max": [
        0.0,
        0.0
      ],
      "min": [
        0.0,
        0.0
      ],
      "type": "VEC2"
    },
    {
      "bufferView": 0,
      "componentType": 5125,
      "count": 10,
      "type": "SCALAR"
    },
    {
      "bufferView": 2,
      "byteOffset": 120,
      "componentType": 5126,
      "count": 65534,
      "max": [
        8.09535026550293,
        47.06222915649414,
        60.00172424316406
      ],
      "min": [
        -35.598854064941406,
        -75.08064270019531,
        5.603766918182373
      ],
      "type": "VEC3"
    },
    {
      "bufferView": 2,
      "byteOffset": 786528,
      "componentType": 5126,
      "count": 65534,
      "max": [
        0.9999948740005493,
        0.9999911785125732,
        0.9995447993278503
      ],
      "min": [
        -0.9999964237213135,
        -0.9998192191123962,
        -0.9999992847442627
      ],
      "type": "VEC3"
    },
    {
      "bufferView": 1,
      "byteOffset": 80,
      "componentType": 5126,
      "count": 65534,
      "max": [
        0.9997559785842896,
        0.9792479872703552
      ],
      "min": [
        0.00024399999529123306,
        0.00024399999529123306
      ],
      "type": "VEC2"
    },
    {
      "bufferView": 0,
      "byteOffset": 40,
      "componentType": 5125,
      "count": 65550,
      "type": "SCALAR"
    },
    {
      "bufferView": 2,
      "byteOffset": 1572936,
      "componentType": 5126,
      "count": 65533,
      "max": [
        6.688854217529297,
        35.05516815185547,
        55.43385314941406
      ],
      "min": [
        -35.40614318847656,
        -75.43429565429688,
        5.603766918182373
      ],
      "type": "VEC3"
    },
    {
      "bufferView": 2,
      "byteOffset": 2359332,
      "componentType": 5126,
      "count": 65533,
      "max": [
        0.9999998807907104,
        0.999995231628418,
        0.9999911785125732
      ],
      "min": [
        -0.9999829530715942,
        -0.9999877214431763,
        -0.9999972581863403
      ],
      "type": "VEC3"
    },
    {
      "bufferView": 1,
      "byteOffset": 524352,
      "componentType": 5126,
      "count": 65533,
      "max": [
        0.9997559785842896,
        0.9792479872703552
      ],
      "min": [
        0.00024399999529123306,
        0.00024399999529123306
      ],
      "type": "VEC2"
    },
    {
      "bufferView": 0,
      "byteOffset": 262240,
      "componentType": 5125,
      "count": 65541,
      "type": "SCALAR"
    },
    {
      "bufferView": 2,
      "byteOffset": 3145728,
      "componentType": 5126,
      "count": 65533,
      "max": [
        5.230164051055908,
        49.3289680480957,
        53.410972595214844
      ],
      "min": [
        -35.54352569580078,
        -44.8012580871582,
        4.701220989227295
      ],
      "type": "VEC3"
    },
    {
      "bufferView": 2,
      "byteOffset": 3932124,
      "componentType": 5126,
      "count": 65533,
      "max": [
        0.9999823570251465,
        0.9999872446060181,
        0.9999982118606567
      ],
      "min": [
        -0.999987006187439,
        -0.9999929666519165,
        -0.9999881982803345
      ],
      "type": "VEC3"
    },
    {
      "bufferView": 1,
      "byteOffset": 1048616,
      "componentType": 5126,
      "count": 65533,
      "max": [
        0.9997559785842896,
        0.9802240133285522
      ],
      "min": [
        0.00024399999529123306,
        0.00024399999529123306
      ],
      "type": "VEC2"
    },
    {
      "bufferView": 0,
      "byteOffset": 524404,
      "componentType": 5125,
      "count": 65541,
      "type": "SCALAR"
    },
    {
      "bufferView": 2,
      "byteOffset": 4718520,
      "componentType": 5126,
      "count": 65532,
      "max": [
        9.499762535095215,
        49.3289680480957,
        37.39187240600586
      ],
      "min": [
        -35.5029296875,
        -44.48310852050781,
        4.403794765472412
      ],
      "type": "VEC3"
    },
    {
      "bufferView": 2,
      "byteOffset": 5504904,
      "componentType": 5126,
      "count": 65532,
      "max": [
        0.9999979734420776,
        0.9999661445617676,
        0.9999915361404419
      ],
      "min": [
        -0.9999995231628418,
        -0.9999631643295288,
        -0.9999895095825195
      ],
      "type": "VEC3"
    },
    {
      "bufferView": 1,
      "byteOffset": 1572880,
      "componentType": 5126,
      "count": 65532,
      "max": [
        0.9997559785842896,
        0.9802240133285522
      ],
      "min": [
        0.00024399999529123306,
        0.00024399999529123306
      ],
      "type": "VEC2"
    },
    {
      "bufferView": 0,
      "byteOffset": 786568,
      "componentType": 5125,
      "count": 65544,
      "type": "SCALAR"
    },
    {
      "bufferView": 2,
      "byteOffset": 6291288,
      "componentType": 5126,
      "count": 65532,
      "max": [
        8.069637298583984,
        49.0303840637207,
        53.85852813720703
      ],
      "min": [
        -35.36809539794922,
        -19.97856903076172,
        3.9108469486236572
      ],
      "type": "VEC3"
    },
    {
      "bufferView": 2,
      "byteOffset": 7077672,
      "componentType": 5126,
      "count": 65532,
      "max": [
        0.9999924898147583,
        0.9995167851448059,
        0.9999788999557495
      ],
      "min": [
        -0.9999984502792358,
        -0.9999982118606567,
        -0.9999858140945435
      ],
      "type": "VEC3"
    },
    {
      "bufferView": 1,
      "byteOffset": 2097136,
      "componentType": 5126,
      "count": 65532,
      "max": [
        0.9997559785842896,
        0.9792479872703552
      ],
      "min": [
        0.00024399999529123306,
        0.00024399999529123306
      ],
      "type": "VEC2"
    },
    {
      "bufferView": 0,
      "byteOffset": 1048744,
      "componentType": 5125,
      "count": 65538,
      "type": "SCALAR"
    },
    {
      "bufferView": 2,
      "byteOffset": 7864056,
      "componentType": 5126,
      "count": 65532,
      "max": [
        9.449712753295898,
        49.164371490478516,
        53.088340759277344
      ],
      "min": [
        -20.193382263183594,
        1.2801200151443481,
        3.9108469486236572
      ],
      "type": "VEC3"
    },
    {
      "bufferView": 2,
      "byteOffset": 8650440,
      "componentType": 5126,
      "count": 65532,
      "max": [
        0.99992835521698,
        0.99996018409729,
        0.999994158744812
      ],
      "min": [
        -0.9999992847442627,
        -0.9999847412109375,
        -0.9999709129333496
      ],
      "type": "VEC3"
    },
    {
      "bufferView": 1,
      "byteOffset": 2621392,
      "componentType": 5126,
      "count": 65532,
      "max": [
        0.9997559785842896,
        0.9772949814796448
      ],
      "min": [
        0.00024399999529123306,
        0.00024399999529123306
      ],
      "type": "VEC2"
    },
    {
      "bufferView": 0,
      "byteOffset": 1310896,
      "componentType": 5125,
      "count": 65550,
      "type": "SCALAR"
    },
    {
      "bufferView": 2,
      "byteOffset": 9436824,
      "componentType": 5126,
      "count": 65533,
      "max": [
        8.790769577026367,
        40.482421875,
        55.371742248535156
      ],
      "min": [
        -35.49696350097656,
        -44.30254364013672,
        4.59722900390625
      ],
      "type": "VEC3"
    },
    {
      "bufferView": 2,
      "byteOffset": 10223220,
      "componentType": 5126,
      "count": 65533,
      "max": [
        0.9999651908874512,
        0.9999480247497559,
        0.9999892711639404
      ],
      "min": [
        -0.9999998807907104,
        -0.9999915361404419,
        -0.9999990463256836
      ],
      "type": "VEC3"
    },
    {
      "bufferView": 1,
      "byteOffset": 3145648,
      "componentType": 5126,
      "count": 65533,
      "max": [
        0.9997559785842896,
        0.9792479872703552
      ],
      "min": [
        0.00024399999529123306,
        0.00024399999529123306
      ],
      "type": "VEC2"
    },
    {
      "bufferView": 0,
      "byteOffset": 1573096,
      "componentType": 5125,
      "count": 65541,
      "type": "SCALAR"
    },
    {
      "bufferView": 2,
      "byteOffset": 11009616,
      "componentType": 5126,
      "count": 65532,
      "max": [
        8.3184814453125,
        50.35072708129883,
        58.985694885253906
      ],
      "min": [
        -35.38083267211914,
        -77.12922668457031,
        4.517323017120361
      ],
      "type": "VEC3"
    },
    {
      "bufferView": 2,
      "byteOffset": 11796000,
      "componentType": 5126,
      "count": 65532,
      "max": [
        0.9999359846115112,
        0.9999446868896484,
        0.9999874830245972
      ],
      "min": [
        -0.9999810457229614,
        -0.9999969005584717,
        -0.9999951124191284
      ],
      "type": "VEC3"
    },
    {
      "bufferView": 1,
      "byteOffset": 3669912,
      "componentType": 5126,
      "count": 65532,
      "max": [
        0.9997559785842896,
        0.9792479872703552
      ],
      "min": [
        0.00024399999529123306,
        0.00024399999529123306
      ],
      "type": "VEC2"
    },
    {
      "bufferView": 0,
      "byteOffset": 1835260,
      "componentType": 5125,
      "count": 65544,
      "type": "SCALAR"
    },
    {
      "bufferView": 2,
      "byteOffset": 12582384,
      "componentType": 5126,
      "count": 62926,
      "max": [
        7.655270099639893,
        48.281551361083984,
        58.90659713745117
      ],
      "min": [
        -34.88493347167969,
        -77.12922668457031,
        19.448488235473633
      ],
      "type": "VEC3"
    },
    {
      "bufferView": 2,
      "byteOffset": 13337496,
      "componentType": 5126,
      "count": 62926,
      "max": [
        0.999998927116394,
        0.9999983310699463,
        0.9996938109397888
      ],
      "min": [
        -0.9999979734420776,
        -0.9999988079071045,
        -0.9999997615814209
      ],
      "type": "VEC3"
    },
    {
      "bufferView": 1,
      "byteOffset": 4194168,
      "componentType": 5126,
      "count": 62926,
      "max": [
        0.9997559785842896,
        0.9831539988517761
      ],
      "min": [
        0.00024399999529123306,
        0.00024399999529123306
      ],
      "type": "VEC2"
    },
    {
      "bufferView": 0,
      "byteOffset": 2097436,
      "componentType": 5125,
      "count": 62934,
      "type": "SCALAR"
    }
  ],
  "asset": {
    "extras": {
      "author": "Austin Beaulier (https://sketchfab.com/Austin.Beaulier)",
      "license": "CC-BY-4.0 (http://creativecommons.org/licenses/by/4.0/)",
      "source": "https://sketchfab.com/3d-models/game-over-videogames-museum-photogrammetry-scan-69dfad2593604fb68b16eb83a0c41648",
      "title": "Game Over VideoGames museum photogrammetry scan"
    },
    "generator": "Sketchfab-12.67.0",
    "version": "2.0"
  },
  "bufferViews": [
    {
      "buffer": 0,
      "byteLength": 2349172,
      "name": "floatBufferViews",
      "target": 34963
    },
    {
      "buffer": 0,
      "byteLength": 4697576,
      "byteOffset": 2349172,
      "byteStride": 8,
      "name": "floatBufferViews",
      "target": 34962
    },
    {
      "buffer": 0,
      "byteLength": 14092608,
      "byteOffset": 7046748,
      "byteStride": 12,
      "name": "floatBufferViews",
      "target": 34962
    }
  ],
  "buffers": [
    {
      "byteLength": 21139356,
      "uri": "scene.bin"
    }
  ],
  "extensionsUsed": [
    "KHR_materials_unlit"
  ],
  "images": [
    {
      "uri": "textures/model_Material_u1_v1_baseColor.jpeg"
    }
  ],
  "materials": [
    {
      "extensions": {
        "KHR_materials_unlit": {}
      },
      "name": "model_Material_u1_v1",
      "pbrMetallicRoughness": {
        "baseColorTexture": {
          "index": 0
        },
        "metallicFactor": 0.0
      }
    }
  ],
  "meshes": [
    {
      "name": "Object_0",
      "primitives": [
        {
          "attributes": {
            "POSITION": 0,
            "TEXCOORD_0": 1
          },
          "indices": 2,
          "material": 0,
          "mode": 1
        }
      ]
    },
    {
      "name": "Object_1",
      "primitives": [
        {
          "attributes": {
            "NORMAL": 4,
            "POSITION": 3,
            "TEXCOORD_0": 5
          },
          "indices": 6,
          "material": 0,
          "mode": 4
        }
      ]
    },
    {
      "name": "Object_2",
      "primitives": [
        {
          "attributes": {
            "NORMAL": 8,
            "POSITION": 7,
            "TEXCOORD_0": 9
          },
          "indices": 10,
          "material": 0,
          "mode": 4
        }
      ]
    },
    {
      "name": "Object_3",
      "primitives": [
        {
          "attributes": {
            "NORMAL": 12,
            "POSITION": 11,
            "TEXCOORD_0": 13
          },
          "indices": 14,
          "material": 0,
          "mode": 4
        }
      ]
    },
    {
      "name": "Object_4",
      "primitives": [
        {
          "attributes": {
            "NORMAL": 16,
            "POSITION": 15,
            "TEXCOORD_0": 17
          },
          "indices": 18,
          "material": 0,
          "mode": 4
        }
      ]
    },
    {
      "name": "Object_5",
      "primitives": [
        {
          "attributes": {
            "NORMAL": 20,
            "POSITION": 19,
            "TEXCOORD_0": 21
          },
          "indices": 22,
          "material": 0,
          "mode": 4
        }
      ]
    },
    {
      "name": "Object_6",
      "primitives": [
        {
          "attributes": {
            "NORMAL": 24,
            "POSITION": 23,
            "TEXCOORD_0": 25
          },
          "indices": 26,
          "material": 0,
          "mode": 4
        }
      ]
    },
    {
      "name": "Object_7",
      "primitives": [
        {
          "attributes": {
            "NORMAL": 28,
            "POSITION": 27,
            "TEXCOORD_0": 29
          },
          "indices": 30,
          "material": 0,
          "mode": 4
        }
      ]
    },
    {
      "name": "Object_8",
      "primitives": [
        {
          "attributes": {
            "NORMAL": 32,
            "POSITION": 31,
            "TEXCOORD_0": 33
          },
          "indices": 34,
          "material": 0,
          "mode": 4
        }
      ]
    },
    {
      "name": "Object_9",
      "primitives": [
        {
          "attributes": {
            "NORMAL": 36,
            "POSITION": 35,
            "TEXCOORD_0": 37
          },
          "indices": 38,
          "material": 0,
          "mode": 4
        }
      ]
    }
  ],
  "nodes": [
    {
      "children": [
        1
      ],
      "matrix": [
        0.001389076288648372,
        -0.0017150286552727225,
        -0.04416799377635172,
        0.0,
        0.04417362406337233,
        -0.0015090305948037843,
        0.001447848504949722,
        0.0,
        -0.0015632997017470673,
        -0.044164058374422055,
        0.0016657104315674811,
        0.0,
        -5.056005477905273,
        46.759674072265625,
        -7.412539482116689,
        1.0
      ],
      "name": "Sketchfab_model"
    },
    {
      "children": [
        2,
        3,
        4,
        5,
        6,
        7,
        8,
        9,
        10,
        11
      ],
      "name": "GameOver.obj.cleaner.materialmerger.gles"
    },
    {
      "mesh": 0,
      "name": "Object_2"
    },
    {
      "mesh": 1,
      "name": "Object_3"
    },
    {
      "mesh": 2,
      "name": "Object_4"
    },
    {
      "mesh": 3,
      "name": "Object_5"
    },
    {
      "mesh": 4,
      "name": "Object_6"
    },
    {
      "mesh": 5,
      "name": "Object_7"
    },
    {
      "mesh": 6,
      "name": "Object_8"
    },
    {
      "mesh": 7,
      "name": "Object_9"
    },
    {
      "mesh": 8,
      "name": "Object_10"
    },
    {
      "mesh": 9,
      "name": "Object_11"
    }
  ],
  "samplers": [
    {
      "magFilter": 9729,
      "minFilter": 9987,
      "wrapS": 10497,
      "wrapT": 10497
    }
  ],
  "scene": 0,
  "scenes": [
    {
      "name": "Sketchfab_Scene",
      "nodes": [
        0
      ]
    }
  ],
  "textures": [
    {
      "sampler": 0,
      "source": 0
    }
  ]
}
